<svg xmlns="http://www.w3.org/2000/svg" viewBox="0 0 1135.18 358.85"><defs><style>.cls-1{fill:#1a1a1a;}</style></defs><g id="Layer_2" data-name="Layer 2"><g id="Layer_1-2" data-name="Layer 1"><path class="cls-1" d="M125.06,252.71q0,17.64-10.58,27.65t-28.2,10H0V0H42.49q-.29,52.52-.58,105c3.83,0,9.74-.07,17,0,7.55.06,7.46.15,13.27.18,6.5,0,12.77-.06,21.73-.18,6.88-.09,7.77-.13,10,0,8.21.47,12.32.7,15.54,3.1,6.19,4.61,5.77,14.5,5.61,16.93ZM82.38,241V138.42l-39.89.74v116H68.84Q82.39,255.13,82.38,241Z"/><path class="cls-1" d="M282.4,103,235.46,288l-18,70.88H174l19.49-70L146,103h43.6l24.68,123.2L239,103Z"/><path class="cls-1" d="M384.27,290.38H337.14q-23.56,0-23.57-23.19v-128h-20V103h20V52.14h42.31V103h27.27v36.18H355.88v115h28.39Z"/><path class="cls-1" d="M529,267.19q0,23.19-23.93,23.19H431.77q-23.94,0-23.94-23.19v-141q0-23.19,23.94-23.19h73.29Q529,103,529,126.17V195q-2.54,2.48-5.08,5-3.36,3.34-6.61,6.67H448.47v52.51h39.89V228H529Zm-40.63-88.14v-44.9H448.47v44.9Z"/><path class="cls-1" d="M677.62,267.19q0,23.19-23.57,23.19H582.62q-23.57,0-23.57-23.19V226.92h40.64v31.55H637V228.78l-65.12-38.41q-12.81-7.6-12.81-20.41V126.17Q559.05,103,583,103h70.69q23.57,0,23.57,23.19v37.67H637v-29H599.69V162l64.94,38q13,7.42,13,20.78Z"/><path class="cls-1" d="M828.1,290.38H787.46l.45-.35c-12.08.8-21.5,1-28,1-5.7,0-7.95-.11-15,0-10.28.16-11.23.51-15.15.09-6.89-.74-13.07-1.3-17.58-5.89q-5.62-5.7-5.62-16.93V200.76q0-23.19,23.94-23.19h57.33v-43H747.2v26.72H708.79V126.17q0-23.19,23.93-23.19h71.81q23.57,0,23.57,23.19Zm-40.27-33.77V206.33H747.2V258.1Z"/><path class="cls-1" d="M979.69,267.19q0,23.19-23.57,23.19H882.46q-23.94,0-23.93-23.19v-141q0-23.19,23.93-23.19h73.66q23.57,0,23.57,23.19V170.7H938.31V138.42h-38V255.13h38V219.32h41.38Z"/><path class="cls-1" d="M1135.18,290.38H1089.9l-37.29-85.91v85.91h-42.49V0h42.49V174.41L1086.19,103h44.35v.74l-43.24,85.17Z"/></g></g></svg>