<?xml version="1.0" encoding="utf-8"?>
<!-- Generator: Adobe Illustrator 24.1.1, SVG Export Plug-In . SVG Version: 6.00 Build 0)  -->
<svg version="1.1" id="Layer_1" xmlns="http://www.w3.org/2000/svg" xmlns:xlink="http://www.w3.org/1999/xlink" x="0px" y="0px"
	 viewBox="0 0 250 250" style="enable-background:new 0 0 250 250;" xml:space="preserve">
<style type="text/css">
	.st0{fill:#00A99D;}
	.st1{fill:#343434;}
</style>
<path class="st0" d="M-30,72"/>
<g>
	<path class="st0" d="M23.7,124.1V114c0-1.9,1.4-3.5,3.3-3.8c2.9-0.4,5.1-1.2,6.7-2.5c2.1-1.6,3.5-4.1,4.4-7.4
		c0.9-3.3,1.3-8.5,1.3-15.5v-2.4c0-7.9,0.5-13.5,1.4-17c0.9-3.5,2.5-6.3,4.8-8.6c2.3-2.3,5.1-3.9,8.5-4.9c3.4-1,8.3-1.5,14.6-1.5h0
		c2.1,0,3.9,1.7,3.9,3.9v13.3h-0.9c-4,0-6.8,0.2-8.6,0.7c-1.8,0.5-3.1,1.4-4,2.8c-0.8,1.4-1.3,6.1-1.4,14.4
		c-0.1,8.2-0.5,14.1-1.3,17.5c-0.8,3.5-2,6.4-3.6,8.8c-0.9,1.4-2.3,2.8-4,4.3c-1.8,1.5-1.9,4.4-0.1,5.9c0.6,0.5,1.2,1.1,1.8,1.7
		c1.6,1.7,2.9,3.6,3.9,5.9c1,2.3,1.8,4.5,2.2,6.7c0.4,2.2,0.8,6.7,1,13.5c0.2,6.8,0.4,10.4,0.4,10.6c0,2.8,0.4,4.9,1.1,6.4
		c0.8,1.5,2,2.5,3.7,3c1.7,0.5,4.6,0.8,8.8,0.8h1.1v13.3c0,2.1-1.7,3.9-3.9,3.9h0c-8.4,0-14.5-1-18.4-3s-6.7-4.8-8.4-8.3
		c-1.7-3.5-2.6-10.4-2.6-20.6v-2.5c0-6.4-0.3-11-0.9-13.8c-0.6-2.8-1.6-5.1-3-6.9c-1.4-1.8-3-3.1-4.6-3.8c-1-0.4-2.2-0.7-3.8-0.9
		C25.2,127.7,23.7,126.1,23.7,124.1z"/>
	<path class="st0" d="M227.2,114v10.3c0,1.9-1.4,3.5-3.2,3.7c-2.9,0.4-5.1,1.3-6.7,2.5c-2.1,1.7-3.5,4.1-4.4,7.4
		c-0.9,3.3-1.3,8.4-1.3,15.4v2.5c0,9.3-0.6,15.6-1.8,18.6c-1.2,3.1-2.7,5.4-4.5,7c-1.8,1.6-4.2,3-7,4.3s-8.2,1.9-16.1,1.9h0
		c-2.1,0-3.8-1.7-3.8-3.8v-13.4h1c3.4,0,5.8-0.1,7.1-0.3c1.4-0.2,2.6-0.7,3.7-1.5c1.1-0.8,1.8-1.8,2.2-3c0.4-1.2,0.6-3.1,0.7-5.7
		l0.2-8.4c0.2-7.7,0.7-13.1,1.3-16.3c0.6-3.2,1.8-6.2,3.8-9c1.1-1.6,2.4-3.1,4-4.5c1.8-1.5,1.7-4.3-0.1-5.8
		c-1.8-1.5-3.1-2.9-4.1-4.4c-1.7-2.5-2.8-5.1-3.4-7.9c-0.6-2.8-1-8.6-1.4-17.3c-0.2-7.2-0.4-11.6-0.6-13.1c-0.2-1.5-1-2.9-2.5-4.1
		c-1.4-1.2-5.1-1.8-11-1.8h-0.9V54.2c0-2.1,1.7-3.8,3.8-3.8h0c6.9,0,12,0.5,15.3,1.6c3.3,1.1,6.1,2.8,8.3,5.1
		c2.2,2.3,3.7,5.1,4.6,8.6c0.9,3.4,1.3,9,1.3,16.6v2.4c0,6.4,0.3,11,0.9,13.8c0.6,2.8,1.6,5.1,3,6.9c1.4,1.8,3,3.1,4.6,3.8
		c1,0.4,2.3,0.7,3.8,0.9C225.8,110.5,227.2,112.1,227.2,114z"/>
	<path class="st1" d="M179.7,35.2h-14.4c-0.8,0-1.4-0.6-1.4-1.4V19.4c0-0.8,0.6-1.4,1.4-1.4h14.4c0.8,0,1.4,0.6,1.4,1.4v14.4
		C181.1,34.6,180.5,35.2,179.7,35.2z"/>
	<path class="st1" d="M142.5,50.3H121c-0.8,0-1.4-0.6-1.4-1.4V27.4c0-0.8,0.6-1.4,1.4-1.4h21.5c0.8,0,1.4,0.6,1.4,1.4v21.5
		C143.9,49.7,143.3,50.3,142.5,50.3z"/>
	<path class="st1" d="M170.7,95.1H137c-0.8,0-1.4-0.6-1.4-1.4V60.1c0-0.8,0.6-1.4,1.4-1.4h33.6c0.8,0,1.4,0.6,1.4,1.4v33.6
		C172,94.5,171.4,95.1,170.7,95.1z"/>
</g>
</svg>
